<svg version="1.1" xmlns="http://www.w3.org/2000/svg" xmlns:xlink="http://www.w3.org/1999/xlink" viewBox="0 0 172 172"><g fill="none" fill-rule="nonzero" stroke="none" stroke-width="1" stroke-linecap="butt" stroke-linejoin="miter" stroke-miterlimit="10" stroke-dasharray="" stroke-dashoffset="0" font-family="none" font-weight="none" font-size="none" text-anchor="none" style="mix-blend-mode: normal"><path d="M0,172v-172h172v172z" fill="none"></path><g><path d="M86.00358,14.33333c-39.69258,0 -71.66667,31.97408 -71.66667,71.66667c0,39.69258 31.97408,71.66667 71.66667,71.66667c39.689,0 71.66667,-31.97408 71.66667,-71.66667c0,-39.69258 -31.97767,-71.66667 -71.66667,-71.66667z" fill="#2ecc71"></path><path d="M113.76008,121.52875c-1.04633,0 -2.09625,-0.51958 -3.14258,-1.04633c-9.95092,-5.75842 -21.99808,-8.901 -35.088,-8.901c-7.33508,0 -14.66658,1.04275 -21.47492,2.61583c-1.04633,0 -2.61942,0.52317 -3.14258,0.52317c-2.61942,0 -4.18892,-2.09983 -4.18892,-4.1925c0,-2.61583 1.5695,-4.1925 3.66575,-4.7085c8.37783,-2.09983 16.75925,-3.14258 25.66025,-3.14258c14.66658,0 28.28325,3.65858 39.80367,10.47767c1.5695,1.04275 2.61942,2.09267 2.61942,4.7085c-0.52317,2.09983 -2.61942,3.66575 -4.71208,3.66575zM121.09158,103.71958c-1.5695,0 -2.61583,-0.516 -3.66575,-1.04275c-10.99367,-6.80833 -26.187,-11.00442 -43.46583,-11.00442c-8.38142,0 -16.23608,1.04992 -21.99808,2.62658c-1.57308,0.516 -2.09625,0.516 -3.14258,0.516c-3.14258,0 -5.23883,-2.61583 -5.23883,-5.23525c0,-3.14258 1.57308,-4.71567 4.18892,-5.75842c7.85467,-2.09267 15.71292,-3.66575 26.71017,-3.66575c17.80917,0 35.09158,4.1925 48.70825,12.56675c2.09267,1.04275 3.14258,3.14258 3.14258,5.23525c0,3.14617 -2.09625,5.762 -5.23883,5.762zM129.473,82.77858c-1.5695,0 -2.09625,-0.52317 -3.66575,-1.04275c-12.57033,-7.33508 -31.42225,-11.52758 -49.75458,-11.52758c-9.42775,0 -18.8555,1.04992 -27.23333,3.14258c-1.04992,0 -2.09625,0.52317 -3.66575,0.52317c-3.66575,0.52317 -6.28517,-2.61583 -6.28517,-6.28517c0,-3.66575 2.09625,-5.75842 4.71208,-6.28517c9.95092,-3.14258 20.425,-4.1925 32.47217,-4.1925c19.90183,0 40.85,4.1925 56.56292,13.0935c2.09267,1.04992 3.66217,3.14258 3.66217,6.28517c-0.51958,3.66575 -3.14258,6.28875 -6.80475,6.28875z" fill="#ffffff"></path></g></g></svg>